<?xml version="1.0" ?><svg height="72" viewBox="0 0 72 72" width="72" xmlns="http://www.w3.org/2000/svg">
<g fill="none" fill-rule="evenodd">
  <ellipse style="fill: rgb(224, 224, 224); transform-origin: 35.649px 35.674px;" cx="35.649" cy="35.674" rx="37.066" ry="37.497" transform="matrix(0.94041121006, 0, 0, 0.94041121006, 0.471608649893, 0.470118839219)"/>
  <path d="M 58.862 58.74 L 49.532 58.74 L 49.532 42.848 C 49.532 38.491 47.876 36.056 44.427 36.056 C 40.676 36.056 38.716 38.59 38.716 42.848 L 38.716 58.74 L 29.724 58.74 L 29.724 28.466 L 38.716 28.466 L 38.716 32.544 C 38.716 32.544 41.419 27.542 47.844 27.542 C 54.265 27.542 58.862 31.463 58.862 39.572 L 58.862 58.74 Z M 18.997 24.502 C 15.934 24.502 13.452 22.002 13.452 18.916 C 13.452 15.831 15.934 13.33 18.997 13.33 C 22.06 13.33 24.54 15.831 24.54 18.916 C 24.54 22.002 22.06 24.502 18.997 24.502 Z M 14.354 58.74 L 23.729 58.74 L 23.729 28.466 L 14.354 28.466 L 14.354 58.74 Z" fill="black" style="" transform="matrix(0.9404110908508302, 0, 0, 0.9404110908508302, 2.595889091491699, 2.595889091491699)"/>
</g>
</svg>